<svg xmlns="http://www.w3.org/2000/svg" viewBox="0 0 64 64"><defs><style>.cls-1{fill:#4ea0ca;}.cls-2{fill:#fdc88e;}.cls-3{fill:#fc9b28;}.cls-4{fill:#ffb422;}.cls-5{fill:#455465;}.cls-6{fill:#b06e53;}.cls-7{fill:#ffe1b2;}.cls-8{fill:#e4ebf0;}.cls-9{fill:#ffd7a3;}.cls-10{fill:#d0d7dc;}.cls-11{fill:#b8453d;}.cls-12{fill:#ffd24f;}.cls-13{fill:#c55f54;}.cls-14{fill:#29394a;}</style></defs><title>04-engineer</title><g id="_04-engineer" data-name="04-engineer"><path class="cls-1" d="M48,63H39l3-5V53h3V41.48c3.55.97,9,3.96,9,13.14V63Z"/><path class="cls-2" d="M48,24v1a3,3,0,0,1-3,3h-.92a22.923,22.923,0,0,0,.91-6H46A2.006,2.006,0,0,1,48,24Z"/><path class="cls-3" d="M48,19H16a3.757,3.757,0,0,1,2.04-2.93C20.78,14.24,26,13,32,13s11.22,1.24,13.96,3.07A3.757,3.757,0,0,1,48,19Z"/><path class="cls-4" d="M24,3.52a13.9,13.9,0,0,1,5-2.2V9h6V1.32A14.051,14.051,0,0,1,46,15v1l-.04.07C43.22,14.24,38,13,32,13s-11.22,1.24-13.96,3.07L18,16V15A13.953,13.953,0,0,1,24,3.52Z"/><path class="cls-5" d="M42,53v5l-3,5H36l4.88-17.87L42,41a12.352,12.352,0,0,1,3,.48V53Z"/><path class="cls-6" d="M45,21.62c0,.13,0,.25-.01.38H42l-2-3h4.75A13.4,13.4,0,0,1,45,21.62Z"/><path class="cls-7" d="M39.01,36.42a10.813,10.813,0,0,1-14.02,0A17.292,17.292,0,0,1,19.92,28a22.923,22.923,0,0,1-.91-6H22l2-3H40l2,3h2.99a22.923,22.923,0,0,1-.91,6,19.85,19.85,0,0,1-2.31,5.21A14.269,14.269,0,0,1,39.01,36.42Z"/><polygon class="cls-8" points="42 41 40.88 45.13 35 51 34 50 32 48 42 41"/><path class="cls-9" d="M42,41,32,48,22,41s2.83,0,2.99-4.58a10.813,10.813,0,0,0,14.02,0C39.17,41,42,41,42,41Z"/><path class="cls-10" d="M40.88,45.13,36,63l-2.82-9.39a2.2,2.2,0,0,0,.23-.2A1.955,1.955,0,0,0,34,52V50l1,1Z"/><path class="cls-11" d="M33.18,53.61,36,63H28l2.82-9.39a1.98,1.98,0,0,0,2.36,0Z"/><path class="cls-12" d="M35,1.32V9H29V1.32a14.223,14.223,0,0,1,6,0Z"/><path class="cls-13" d="M33.18,53.61a1.98,1.98,0,0,1-2.36,0A1.979,1.979,0,0,1,30,52V50l2-2,2,2v2a1.955,1.955,0,0,1-.59,1.41A2.2,2.2,0,0,1,33.18,53.61Z"/><polygon class="cls-8" points="32 48 30 50 29 51 23.13 45.13 22 41 32 48"/><path class="cls-10" d="M30.82,53.61,28,63,23.13,45.13,29,51l1-1v2A1.979,1.979,0,0,0,30.82,53.61Z"/><path class="cls-5" d="M23.13,45.13,28,63H25l-3-5V53H19V41.48A12.352,12.352,0,0,1,22,41Z"/><path class="cls-1" d="M16,63H10V54.62c0-9.18,5.45-12.17,9-13.14V53h3v5l3,5Z"/><path class="cls-6" d="M24,19l-2,3H19.01c-.01-.13-.01-.25-.01-.38A13.4,13.4,0,0,1,19.25,19Z"/><path class="cls-2" d="M19.92,28H19a3,3,0,0,1-3-3V24a2.006,2.006,0,0,1,2-2h1.01A22.923,22.923,0,0,0,19.92,28Z"/><path class="cls-2" d="M39.01,36.42A10.82,10.82,0,0,1,26.5,37.5l8.443,8.443L42,41S39.17,41,39.01,36.42Z"/><path class="cls-14" d="M45.269,40.517A13.381,13.381,0,0,0,42.02,40c-.19-.009-1.724-.186-1.981-3.169a15.516,15.516,0,0,0,2.573-3.082A20.449,20.449,0,0,0,44.807,29H45a4,4,0,0,0,4-4V24a3,3,0,0,0-3-3h-.029c-.014-.337-.03-.672-.065-1H48a1,1,0,0,0,1-1,4.326,4.326,0,0,0-2-3.4V15A14.961,14.961,0,0,0,41,3.037V3h-.047c-.129-.1-.245-.206-.378-.3A14.827,14.827,0,0,0,35.212.342a15.3,15.3,0,0,0-6.427,0A14.8,14.8,0,0,0,23.43,2.7c-.135.093-.252.2-.382.3H23v.038A14.96,14.96,0,0,0,17,15v.6A4.329,4.329,0,0,0,15,19a1,1,0,0,0,1,1h2.094c-.035.328-.051.663-.065,1H18a3,3,0,0,0-3,3v1a4,4,0,0,0,4,4h.192a18.043,18.043,0,0,0,4.77,7.828c-.246,2.983-1.791,3.163-1.982,3.172a13.379,13.379,0,0,0-3.244.515C15.1,41.509,9,44.663,9,54.62V63a1,1,0,0,0,1,1H54a1,1,0,0,0,1-1V54.62C55,44.663,48.9,41.509,45.269,40.517ZM44,42.265V52H40.037l2.713-9.945C43.082,42.093,43.513,42.159,44,42.265Zm-18.229-4.05a11.76,11.76,0,0,0,12.462,0,5.163,5.163,0,0,0,1.718,3L32,46.779l-7.949-5.564A5.139,5.139,0,0,0,25.771,38.215ZM39.98,44.606,35,49.586l-1.451-1.45,6.758-4.731ZM31.4,52.8A.984.984,0,0,1,31,52V50.414l1-1,1,1V52a.968.968,0,0,1-.3.7,1.186,1.186,0,0,1-.129.111A.978.978,0,0,1,31.4,52.8Zm-.954-4.662L29,49.586l-4.98-4.98-.327-1.2Zm-2.157,3.571A1,1,0,0,0,29,52a3,3,0,0,0,.685,1.9l-1.639,5.464L25.081,48.5Zm3.169,3.241a2.819,2.819,0,0,0,1.078,0L34.656,62H29.345Zm2.845-1.059A2.932,2.932,0,0,0,35,52h0a1,1,0,0,0,.706-.292L38.918,48.5,35.954,59.369ZM47,24v1a2,2,0,0,1-1.624,1.962A24.039,24.039,0,0,0,45.941,23H46A1,1,0,0,1,47,24Zm-3.029-3H42.535l-.667-1h2.019C43.929,20.327,43.955,20.66,43.971,21ZM34,2.171V8H30V2.171A13.31,13.31,0,0,1,34,2.171ZM23,5.654V10h2V4.07a12.755,12.755,0,0,1,3-1.443V9a1,1,0,0,0,1,1h6a1,1,0,0,0,1-1V2.627A12.793,12.793,0,0,1,39,4.07V10h2V5.652a12.952,12.952,0,0,1,3.962,8.73C41.805,12.879,37.136,12,32,12s-9.808.879-12.962,2.382A12.945,12.945,0,0,1,23,5.654ZM18.6,16.9C21.275,15.112,26.412,14,32,14s10.725,1.112,13.408,2.9a4.781,4.781,0,0,1,1.22,1.1H17.372A4.831,4.831,0,0,1,18.6,16.9ZM20.113,20h2.019l-.667,1H20.029C20.045,20.66,20.071,20.327,20.113,20ZM17,25V24a1,1,0,0,1,1-1h.059a24.287,24.287,0,0,0,.565,3.962A2,2,0,0,1,17,25Zm3.88,2.72A22.145,22.145,0,0,1,20.061,23H22a1,1,0,0,0,.832-.445L24.535,20h14.93l1.7,2.555A1,1,0,0,0,42,23h1.939a22.083,22.083,0,0,1-.82,4.725,18.787,18.787,0,0,1-2.192,4.947,13.25,13.25,0,0,1-2.561,2.983,9.813,9.813,0,0,1-12.729,0A16.422,16.422,0,0,1,20.88,27.72ZM23.964,52H20V42.264c.488-.105.92-.172,1.252-.209ZM11,54.62c0-7.292,3.557-10.426,7-11.756V53a1,1,0,0,0,1,1h2v4a1,1,0,0,0,.143.515L23.234,62H17V56H15v6H11ZM25.566,62,23,57.723V54h1.51l2.181,8Zm13.926-8H41v3.723L38.434,62H37.31ZM53,62H49V56H47v6H40.766l2.091-3.485A1,1,0,0,0,43,58V54h2a1,1,0,0,0,1-1V42.864c3.441,1.328,7,4.461,7,11.756Z"/><path class="cls-14" d="M32,35a5.006,5.006,0,0,0,5-5H35a3,3,0,0,1-6,0H27A5.006,5.006,0,0,0,32,35Z"/></g></svg>