<?xml version="1.0" encoding="iso-8859-1"?>
<!-- Uploaded to: SVG Repo, www.svgrepo.com, Generator: SVG Repo Mixer Tools -->
<svg version="1.1" id="Layer_1" xmlns="http://www.w3.org/2000/svg" xmlns:xlink="http://www.w3.org/1999/xlink" 
	 viewBox="0 0 512.003 512.003" xml:space="preserve">
<g>
	<rect x="292.211" style="fill:#1D1D1B;" width="15.722" height="512.003"/>
	
		<rect x="52.208" y="68.687" transform="matrix(0.7071 0.7071 -0.7071 0.7071 74.1628 -19.0437)" style="fill:#1D1D1B;" width="15.722" height="22.627"/>
	
		<rect x="80.208" y="60.403" transform="matrix(0.7071 0.7071 -0.7071 0.7071 96.5063 -32.9846)" style="fill:#1D1D1B;" width="15.722" height="79.196"/>
	
		<rect x="142.204" y="57.231" transform="matrix(0.7071 0.7071 -0.7071 0.7071 110.4207 -78.5804)" style="fill:#1D1D1B;" width="15.722" height="73.536"/>
	
		<rect x="172.218" y="108.678" transform="matrix(-0.7071 -0.7071 0.7071 -0.7071 222.5671 332.1749)" style="fill:#1D1D1B;" width="15.722" height="22.628"/>
	<polygon style="fill:#1D1D1B;" points="243.932,32.139 28.072,32.139 28.072,47.861 228.21,47.861 228.21,144.896 28.072,144.896 
		28.072,160.618 260.21,160.618 260.21,184.896 28.072,184.896 28.072,200.618 260.21,200.618 260.21,208.896 28.072,208.896 
		28.072,224.618 275.932,224.618 275.932,144.896 243.932,144.896 	"/>
	<polygon style="fill:#1D1D1B;" points="243.932,288.966 28.072,288.966 28.072,304.688 228.21,304.688 228.21,401.724 
		28.072,401.724 28.072,417.446 260.21,417.446 260.21,441.724 28.072,441.724 28.072,457.446 260.21,457.446 260.21,465.724 
		28.072,465.724 28.072,481.446 275.932,481.446 275.932,401.724 243.932,401.724 	"/>
	
		<rect x="52.204" y="325.521" transform="matrix(0.7071 0.7071 -0.7071 0.7071 255.7707 56.1844)" style="fill:#1D1D1B;" width="15.722" height="22.627"/>
	
		<rect x="80.202" y="317.226" transform="matrix(0.7071 0.7071 -0.7071 0.7071 278.1058 42.2412)" style="fill:#1D1D1B;" width="15.722" height="79.196"/>
	
		<rect x="142.203" y="314.068" transform="matrix(0.7071 0.7071 -0.7071 0.7071 292.031 -3.3538)" style="fill:#1D1D1B;" width="15.722" height="73.536"/>
	
		<rect x="172.21" y="365.512" transform="matrix(-0.7071 -0.7071 0.7071 -0.7071 40.9453 770.611)" style="fill:#1D1D1B;" width="15.722" height="22.627"/>
	<path style="fill:#1D1D1B;" d="M474.631,176.139l-16-88h-30.7V40H412.21v48.139h-30.7l-16,88h-9.3V512h15.722V191.861h16.278v240
		h63.721v-240h16.279V512h15.722V176.139H474.631z M436.21,416.139h-32.277V191.861h32.277V416.139z M381.49,176.139l13.142-72.278
		h50.879l13.141,72.278H381.49z"/>
	<rect x="388.073" y="448.14" style="fill:#1D1D1B;" width="63.999" height="15.722"/>
	<rect x="388.073" y="480.14" style="fill:#1D1D1B;" width="63.999" height="15.722"/>
	<rect x="412.212" y="392.002" style="fill:#1D1D1B;" width="15.722" height="16"/>
	<rect x="412.212" y="360.003" style="fill:#1D1D1B;" width="15.722" height="16"/>
	<rect x="412.212" y="328.003" style="fill:#1D1D1B;" width="15.722" height="16"/>
	<rect x="412.212" y="296.004" style="fill:#1D1D1B;" width="15.722" height="16"/>
	<rect x="412.212" y="264.004" style="fill:#1D1D1B;" width="15.722" height="16"/>
	<rect x="412.212" y="232.005" style="fill:#1D1D1B;" width="15.722" height="16"/>
	<rect x="412.212" y="200.005" style="fill:#1D1D1B;" width="15.722" height="16"/>
	<rect x="412.076" y="152.137" style="fill:#1D1D1B;" width="16" height="15.722"/>
	<rect x="412.076" y="120.137" style="fill:#1D1D1B;" width="16" height="15.722"/>
</g>
</svg>